<svg width="20" height="16" viewBox="0 0 20 16" fill="none" xmlns="http://www.w3.org/2000/svg">
<path d="M10.69 8.06C10.5062 8.22584 10.2675 8.31764 10.02 8.31764C9.77247 8.31764 9.53375 8.22584 9.35 8.06L0.869995 0.35C1.20275 0.122058 1.59665 5.35399e-05 2 0H18C18.4033 5.35399e-05 18.7972 0.122058 19.13 0.35L10.69 8.06Z" fill="#b49045"/>
<path d="M20 2.26001V13C20 13.7957 19.6839 14.5587 19.1213 15.1213C18.5587 15.6839 17.7956 16 17 16H3C2.20435 16 1.44129 15.6839 0.87868 15.1213C0.316071 14.5587 0 13.7957 0 13V2.26001L8.68 10.18C9.04606 10.4979 9.51515 10.6721 10 10.67C10.4909 10.669 10.9643 10.4875 11.33 10.16L20 2.26001Z" fill="black"/>
</svg>
