<svg width="500" height="500" viewBox="0 0 500 500" fill="none" xmlns="http://www.w3.org/2000/svg">
<g clip-path="url(#clip0_331_2)">
<path d="M359.51 143.09L352.21 102.66C315.204 74.7719 270.108 59.7202 223.77 59.79C105.67 59.79 9.93005 155.53 9.93005 273.63C9.93005 391.73 105.67 487.47 223.77 487.47C341.87 487.47 437.61 391.73 437.61 273.63C437.68 229.371 423.95 186.19 398.33 150.1L359.51 143.09Z" fill="#b49045"/>
<path d="M340.579 390.44C405.094 325.926 405.094 221.327 340.579 156.812C276.064 92.2977 171.465 92.2977 106.951 156.812C42.4363 221.327 42.4363 325.926 106.951 390.44C171.465 454.955 276.064 454.955 340.579 390.44Z" fill="white"/>
<path d="M398.33 150.1L360.78 143.32C389.588 180.646 405.187 226.48 405.13 273.63C405.13 386.26 318.03 478.48 207.53 486.79C212.89 487.2 218.3 487.47 223.77 487.47C341.87 487.47 437.61 391.73 437.61 273.63C437.68 229.371 423.95 186.19 398.33 150.1V150.1Z" fill="#b49045"/>
<path d="M359.19 141.29L352.19 102.66C315.189 74.7761 270.101 59.7246 223.77 59.79C218.3 59.79 212.89 60.06 207.53 60.47C237.03 62.6942 265.746 71.0274 291.854 84.9405C317.962 98.8537 340.893 118.043 359.19 141.29Z" fill="#b49045"/>
<path d="M340.579 390.44C405.094 325.926 405.094 221.327 340.579 156.812C276.064 92.2977 171.465 92.2977 106.951 156.812C42.4363 221.327 42.4363 325.926 106.951 390.44C171.465 454.955 276.064 454.955 340.579 390.44Z" stroke="black" stroke-width="20" stroke-linecap="round" stroke-linejoin="round"/>
<path d="M304.785 354.647C349.532 309.9 349.532 237.352 304.785 192.606C260.039 147.86 187.491 147.86 142.745 192.606C97.9984 237.352 97.9984 309.9 142.745 354.647C187.491 399.393 260.039 399.393 304.785 354.647Z" fill="#b49045"/>
<path d="M304.785 354.647C349.532 309.9 349.532 237.352 304.785 192.606C260.039 147.86 187.491 147.86 142.745 192.606C97.9984 237.352 97.9984 309.9 142.745 354.647C187.491 399.393 260.039 399.393 304.785 354.647Z" stroke="black" stroke-width="20" stroke-linecap="round" stroke-linejoin="round"/>
<path d="M264.006 313.868C286.231 291.643 286.231 255.61 264.006 233.385C241.782 211.16 205.748 211.16 183.523 233.385C161.299 255.61 161.299 291.643 183.523 313.868C205.748 336.093 241.782 336.093 264.006 313.868Z" fill="white"/>
<path d="M264.006 313.868C286.231 291.643 286.231 255.61 264.006 233.385C241.782 211.16 205.748 211.16 183.523 233.385C161.299 255.61 161.299 291.643 183.523 313.868C205.748 336.093 241.782 336.093 264.006 313.868Z" stroke="black" stroke-width="20" stroke-linecap="round" stroke-linejoin="round"/>
<path d="M359.51 143.09L348.55 82.4L418.43 12.53L429.38 73.22L359.51 143.09Z" fill="#b49045"/>
<path d="M359.51 143.09L420.2 154.05L490.07 84.18L429.38 73.22L359.51 143.09Z" fill="#b49045"/>
<path d="M405.58 97.02L223.77 278.83" stroke="black" stroke-width="20" stroke-linecap="round" stroke-linejoin="round"/>
<path d="M359.51 143.09L348.55 82.4L418.43 12.53L429.38 73.22L359.51 143.09Z" stroke="black" stroke-width="20" stroke-linecap="round" stroke-linejoin="round"/>
<path d="M359.51 143.09L420.2 154.05L490.07 84.18L429.38 73.22L359.51 143.09Z" stroke="black" stroke-width="20" stroke-linecap="round" stroke-linejoin="round"/>
<path d="M359.51 143.09L352.21 102.66C315.204 74.7719 270.108 59.7202 223.77 59.79C105.67 59.79 9.93005 155.53 9.93005 273.63C9.93005 391.73 105.67 487.47 223.77 487.47C341.87 487.47 437.61 391.73 437.61 273.63C437.68 229.371 423.95 186.19 398.33 150.1L359.51 143.09Z" stroke="black" stroke-width="20" stroke-linecap="round" stroke-linejoin="round"/>
</g>
<defs>
<clipPath id="clip0_331_2">
<rect width="500" height="500" fill="white"/>
</clipPath>
</defs>
</svg>
